<svg xmlns="http://www.w3.org/2000/svg" viewBox="0 0 1024 1024" role="img" aria-label="Stilus Ingenium mark">
  <title>Stilus Ingenium — Symbol</title>
  <desc>Pen-nib mark: Stilus / nun / qaf / S with central saffron gold dot. Editorial Noir.</desc>
  <path d="M349.00 435.00 L349.00 436.00 L348.00 437.00 L348.00 438.00 L349.00 439.00 L349.00 441.00 L348.00 442.00 L348.00 454.00 L349.00 455.00 L349.00 461.00 L348.00 462.00 L348.00 467.00 L349.00 468.00 L349.00 470.00 L348.00 471.00 L348.00 528.00 L349.00 529.00 L349.00 531.00 L348.00 532.00 L348.00 570.00 L349.00 571.00 L349.00 580.00 L348.00 581.00 L348.00 587.00 L349.00 588.00 L349.00 608.00 L351.00 610.00 L351.00 611.00 L354.00 615.00 L354.00 616.00 L355.00 616.00 L359.00 620.00 L359.00 621.00 L360.00 621.00 L362.00 623.00 L362.00 624.00 L363.00 624.00 L364.00 625.00 L364.00 626.00 L365.00 626.00 L367.00 628.00 L367.00 629.00 L368.00 629.00 L369.00 630.00 L369.00 631.00 L373.00 635.00 L374.00 638.00 L382.00 646.00 L382.00 648.00 L384.00 650.00 L384.00 651.00 L385.00 651.00 L387.00 653.00 L387.00 654.00 L389.00 656.00 L389.00 658.00 L396.00 665.00 L396.00 666.00 L397.00 667.00 L397.00 669.00 L398.00 669.00 L399.00 670.00 L399.00 671.00 L402.00 674.00 L402.00 676.00 L406.00 680.00 L406.00 681.00 L407.00 682.00 L407.00 684.00 L411.00 688.00 L412.00 691.00 L414.00 693.00 L414.00 695.00 L415.00 696.00 L415.00 697.00 L419.00 701.00 L419.00 703.00 L422.00 706.00 L422.00 708.00 L427.00 714.00 L427.00 716.00 L429.00 718.00 L429.00 720.00 L430.00 721.00 L430.00 722.00 L434.00 726.00 L434.00 728.00 L437.00 732.00 L437.00 734.00 L439.00 736.00 L439.00 738.00 L440.00 739.00 L442.00 744.00 L444.00 746.00 L444.00 749.00 L447.00 753.00 L447.00 755.00 L449.00 758.00 L449.00 760.00 L452.00 764.00 L452.00 766.00 L454.00 768.00 L454.00 771.00 L457.00 775.00 L457.00 779.00 L459.00 781.00 L459.00 783.00 L462.00 787.00 L462.00 791.00 L464.00 793.00 L464.00 795.00 L467.00 799.00 L467.00 803.00 L469.00 805.00 L469.00 808.00 L472.00 812.00 L472.00 816.00 L474.00 818.00 L474.00 820.00 L477.00 825.00 L477.00 829.00 L479.00 831.00 L479.00 835.00 L482.00 840.00 L482.00 844.00 L484.00 846.00 L484.00 851.00 L487.00 855.00 L487.00 859.00 L489.00 861.00 L489.00 862.00 L491.00 865.00 L500.00 865.00 L501.00 864.00 L501.00 842.00 L502.00 841.00 L502.00 830.00 L501.00 829.00 L501.00 826.00 L502.00 825.00 L502.00 813.00 L501.00 812.00 L501.00 663.00 L498.00 660.00 L489.00 660.00 L487.00 658.00 L483.00 658.00 L478.00 655.00 L475.00 655.00 L472.00 652.00 L469.00 651.00 L466.00 648.00 L465.00 648.00 L464.00 647.00 L462.00 647.00 L441.00 626.00 L441.00 624.00 L436.00 618.00 L436.00 616.00 L435.00 615.00 L433.00 610.00 L431.00 608.00 L431.00 606.00 L428.00 601.00 L428.00 598.00 L426.00 596.00 L426.00 589.00 L423.00 585.00 L423.00 572.00 L422.00 571.00 L422.00 568.00 L421.00 567.00 L421.00 549.00 L422.00 548.00 L422.00 546.00 L423.00 545.00 L423.00 540.00 L424.00 539.00 L430.00 539.00 L432.00 541.00 L436.00 541.00 L441.00 544.00 L445.00 544.00 L447.00 546.00 L453.00 546.00 L455.00 548.00 L457.00 548.00 L458.00 549.00 L464.00 549.00 L466.00 551.00 L475.00 551.00 L480.00 554.00 L493.00 554.00 L494.00 555.00 L497.00 555.00 L498.00 554.00 L500.00 554.00 L501.00 553.00 L501.00 551.00 L502.00 550.00 L502.00 548.00 L501.00 547.00 L501.00 530.00 L498.00 527.00 L478.00 527.00 L476.00 525.00 L469.00 525.00 L468.00 524.00 L465.00 524.00 L463.00 522.00 L456.00 522.00 L454.00 520.00 L451.00 520.00 L450.00 519.00 L448.00 519.00 L445.00 517.00 L442.00 517.00 L437.00 514.00 L435.00 514.00 L433.00 512.00 L431.00 512.00 L430.00 511.00 L429.00 511.00 L424.00 507.00 L421.00 507.00 L415.00 502.00 L412.00 502.00 L407.00 497.00 L405.00 497.00 L400.00 492.00 L399.00 492.00 L396.00 489.00 L395.00 489.00 L393.00 487.00 L392.00 487.00 L370.00 465.00 L370.00 464.00 L365.00 458.00 L365.00 457.00 L360.00 452.00 L360.00 450.00 L356.00 445.00 L355.00 442.00 L352.00 439.00 L352.00 438.00 L350.00 436.00 L350.00 435.00 Z M524.00 387.00 L522.00 390.00 L522.00 455.00 L523.00 455.00 L524.00 456.00 L529.00 456.00 L531.00 458.00 L538.00 458.00 L541.00 461.00 L546.00 461.00 L548.00 463.00 L550.00 463.00 L552.00 465.00 L553.00 465.00 L554.00 466.00 L556.00 466.00 L559.00 469.00 L562.00 470.00 L582.00 490.00 L582.00 492.00 L585.00 495.00 L585.00 497.00 L590.00 503.00 L590.00 505.00 L592.00 507.00 L592.00 509.00 L595.00 513.00 L595.00 518.00 L597.00 520.00 L597.00 525.00 L600.00 530.00 L600.00 542.00 L601.00 543.00 L601.00 545.00 L602.00 546.00 L602.00 569.00 L601.00 570.00 L601.00 574.00 L600.00 575.00 L600.00 585.00 L599.00 586.00 L599.00 588.00 L597.00 591.00 L597.00 596.00 L595.00 598.00 L595.00 603.00 L593.00 605.00 L593.00 606.00 L592.00 607.00 L592.00 609.00 L590.00 611.00 L590.00 613.00 L587.00 617.00 L587.00 619.00 L582.00 624.00 L582.00 626.00 L575.00 633.00 L575.00 634.00 L558.00 650.00 L556.00 650.00 L554.00 652.00 L551.00 653.00 L549.00 655.00 L545.00 655.00 L541.00 658.00 L536.00 658.00 L534.00 660.00 L525.00 660.00 L522.00 663.00 L522.00 864.00 L523.00 865.00 L534.00 865.00 L536.00 863.00 L536.00 859.00 L537.00 858.00 L537.00 857.00 L538.00 856.00 L538.00 854.00 L539.00 853.00 L539.00 849.00 L541.00 847.00 L541.00 842.00 L544.00 838.00 L544.00 833.00 L546.00 831.00 L546.00 827.00 L549.00 823.00 L549.00 819.00 L551.00 817.00 L551.00 814.00 L554.00 810.00 L554.00 807.00 L556.00 804.00 L556.00 801.00 L559.00 798.00 L559.00 794.00 L561.00 792.00 L561.00 789.00 L564.00 785.00 L564.00 781.00 L566.00 779.00 L566.00 776.00 L569.00 773.00 L569.00 771.00 L571.00 769.00 L571.00 766.00 L574.00 761.00 L574.00 759.00 L576.00 757.00 L576.00 754.00 L578.00 752.00 L578.00 751.00 L579.00 750.00 L579.00 748.00 L581.00 746.00 L581.00 744.00 L583.00 742.00 L583.00 741.00 L584.00 740.00 L584.00 738.00 L586.00 736.00 L586.00 733.00 L587.00 732.00 L587.00 731.00 L591.00 726.00 L591.00 724.00 L594.00 721.00 L594.00 719.00 L599.00 713.00 L599.00 711.00 L601.00 709.00 L601.00 706.00 L604.00 703.00 L604.00 702.00 L606.00 700.00 L606.00 699.00 L609.00 696.00 L609.00 694.00 L614.00 688.00 L614.00 686.00 L619.00 681.00 L622.00 674.00 L628.00 666.00 L629.00 663.00 L636.00 656.00 L636.00 655.00 L639.00 651.00 L639.00 650.00 L640.00 649.00 L641.00 649.00 L641.00 648.00 L644.00 644.00 L644.00 643.00 L651.00 636.00 L651.00 635.00 L656.00 629.00 L656.00 628.00 L658.00 626.00 L659.00 626.00 L659.00 625.00 L660.00 624.00 L661.00 624.00 L661.00 623.00 L663.00 621.00 L664.00 621.00 L664.00 620.00 L665.00 619.00 L666.00 619.00 L666.00 618.00 L668.00 616.00 L669.00 616.00 L669.00 615.00 L671.00 613.00 L671.00 612.00 L674.00 608.00 L674.00 594.00 L675.00 593.00 L675.00 585.00 L674.00 584.00 L674.00 582.00 L675.00 581.00 L675.00 562.00 L674.00 561.00 L674.00 531.00 L672.00 528.00 L672.00 519.00 L669.00 514.00 L669.00 508.00 L667.00 505.00 L667.00 501.00 L664.00 497.00 L664.00 491.00 L663.00 490.00 L661.00 485.00 L659.00 483.00 L659.00 480.00 L657.00 478.00 L657.00 476.00 L654.00 473.00 L654.00 470.00 L652.00 468.00 L651.00 465.00 L647.00 460.00 L646.00 457.00 L643.00 454.00 L642.00 451.00 L636.00 445.00 L636.00 443.00 L629.00 436.00 L629.00 435.00 L626.00 432.00 L625.00 432.00 L619.00 426.00 L618.00 426.00 L614.00 422.00 L613.00 422.00 L608.00 417.00 L605.00 416.00 L601.00 412.00 L598.00 411.00 L593.00 407.00 L591.00 407.00 L588.00 404.00 L586.00 404.00 L584.00 402.00 L582.00 402.00 L578.00 399.00 L576.00 399.00 L574.00 397.00 L571.00 397.00 L570.00 396.00 L568.00 396.00 L566.00 394.00 L561.00 394.00 L558.00 392.00 L554.00 392.00 L553.00 391.00 L551.00 391.00 L548.00 389.00 L540.00 389.00 L539.00 388.00 L537.00 388.00 L536.00 387.00 Z M525.00 274.00 L522.00 277.00 L522.00 365.00 L526.00 368.00 L546.00 368.00 L548.00 370.00 L555.00 370.00 L560.00 373.00 L566.00 373.00 L568.00 375.00 L572.00 375.00 L576.00 378.00 L579.00 378.00 L582.00 380.00 L585.00 380.00 L588.00 383.00 L591.00 383.00 L593.00 385.00 L595.00 385.00 L597.00 387.00 L598.00 387.00 L599.00 388.00 L601.00 388.00 L603.00 390.00 L605.00 390.00 L608.00 393.00 L613.00 395.00 L619.00 401.00 L621.00 401.00 L653.00 433.00 L654.00 436.00 L660.00 442.00 L660.00 445.00 L665.00 450.00 L665.00 452.00 L668.00 455.00 L668.00 457.00 L673.00 463.00 L673.00 465.00 L674.00 465.00 L675.00 464.00 L675.00 456.00 L676.00 455.00 L676.00 454.00 L675.00 453.00 L675.00 361.00 L674.00 360.00 L674.00 358.00 L673.00 357.00 L670.00 356.00 L644.00 330.00 L644.00 329.00 L638.00 323.00 L638.00 322.00 L636.00 320.00 L636.00 319.00 L633.00 316.00 L632.00 316.00 L629.00 313.00 L629.00 312.00 L619.00 302.00 L619.00 301.00 L617.00 299.00 L617.00 298.00 L612.00 293.00 L612.00 292.00 L609.00 288.00 L609.00 287.00 L604.00 282.00 L604.00 281.00 L602.00 279.00 L602.00 278.00 L598.00 274.00 Z M426.00 274.00 L425.00 275.00 L424.00 275.00 L421.00 278.00 L420.00 281.00 L414.00 287.00 L414.00 289.00 L408.00 296.00 L407.00 299.00 L397.00 309.00 L397.00 310.00 L394.00 314.00 L394.00 315.00 L387.00 321.00 L387.00 322.00 L378.00 331.00 L378.00 332.00 L376.00 334.00 L376.00 335.00 L359.00 352.00 L358.00 352.00 L355.00 356.00 L354.00 356.00 L349.00 360.00 L349.00 375.00 L351.00 377.00 L351.00 382.00 L354.00 387.00 L354.00 393.00 L356.00 396.00 L356.00 400.00 L359.00 404.00 L359.00 408.00 L361.00 410.00 L361.00 413.00 L364.00 417.00 L364.00 420.00 L366.00 422.00 L367.00 425.00 L369.00 427.00 L369.00 429.00 L374.00 435.00 L374.00 437.00 L379.00 442.00 L379.00 445.00 L386.00 452.00 L386.00 453.00 L389.00 456.00 L389.00 457.00 L391.00 459.00 L392.00 459.00 L395.00 463.00 L396.00 463.00 L400.00 467.00 L401.00 467.00 L412.00 478.00 L414.00 478.00 L415.00 479.00 L416.00 479.00 L420.00 483.00 L423.00 484.00 L427.00 488.00 L429.00 488.00 L433.00 491.00 L435.00 491.00 L437.00 493.00 L439.00 493.00 L443.00 496.00 L445.00 496.00 L447.00 498.00 L449.00 498.00 L450.00 499.00 L451.00 499.00 L453.00 501.00 L458.00 501.00 L461.00 503.00 L467.00 503.00 L471.00 506.00 L481.00 506.00 L484.00 508.00 L500.00 508.00 L501.00 507.00 L501.00 291.00 L502.00 290.00 L502.00 285.00 L501.00 284.00 L501.00 276.00 L499.00 274.00 Z M523.00 156.00 L522.00 157.00 L522.00 254.00 L523.00 255.00 L596.00 255.00 L599.00 252.00 L599.00 158.00 L597.00 156.00 Z M426.00 156.00 L424.00 159.00 L424.00 252.00 L425.00 253.00 L425.00 254.00 L426.00 254.00 L427.00 255.00 L500.00 255.00 L501.00 254.00 L501.00 169.00 L502.00 168.00 L502.00 166.00 L501.00 165.00 L501.00 157.00 L500.00 156.00 Z" fill="#0A0A0A" fill-rule="evenodd"/>
  <path d="M601.00 748.00 L598.00 748.00 L595.00 750.00 L595.00 752.00 L593.00 754.00 L593.00 755.00 L592.00 756.00 L592.00 758.00 L590.00 760.00 L590.00 762.00 L587.00 766.00 L587.00 769.00 L585.00 771.00 L585.00 774.00 L582.00 779.00 L582.00 781.00 L580.00 783.00 L580.00 785.00 L578.00 788.00 L577.00 793.00 L575.00 795.00 L575.00 799.00 L573.00 801.00 L573.00 802.00 L572.00 803.00 L572.00 806.00 L570.00 808.00 L570.00 812.00 L567.00 816.00 L567.00 820.00 L565.00 822.00 L565.00 825.00 L562.00 829.00 L562.00 833.00 L560.00 836.00 L560.00 839.00 L557.00 844.00 L557.00 847.00 L555.00 849.00 L555.00 852.00 L552.00 857.00 L552.00 861.00 L553.00 862.00 L558.00 862.00 L567.00 853.00 L567.00 852.00 L576.00 843.00 L576.00 842.00 L579.00 839.00 L580.00 839.00 L580.00 838.00 L623.00 795.00 L622.00 790.00 L619.00 786.00 L619.00 784.00 L616.00 781.00 L616.00 778.00 L614.00 776.00 L614.00 774.00 L611.00 771.00 L611.00 769.00 L607.00 764.00 L607.00 762.00 L601.00 751.00 Z M423.00 748.00 L419.00 757.00 L417.00 759.00 L417.00 761.00 L414.00 764.00 L414.00 766.00 L412.00 768.00 L412.00 770.00 L409.00 774.00 L409.00 776.00 L407.00 778.00 L407.00 780.00 L404.00 784.00 L404.00 786.00 L400.00 791.00 L400.00 793.00 L401.00 794.00 L402.00 797.00 L403.00 797.00 L404.00 798.00 L404.00 799.00 L405.00 799.00 L407.00 801.00 L407.00 802.00 L408.00 802.00 L409.00 803.00 L409.00 804.00 L410.00 805.00 L411.00 805.00 L412.00 806.00 L412.00 807.00 L413.00 807.00 L414.00 808.00 L414.00 809.00 L415.00 810.00 L416.00 810.00 L417.00 811.00 L417.00 812.00 L418.00 812.00 L419.00 813.00 L419.00 814.00 L420.00 815.00 L421.00 815.00 L422.00 816.00 L422.00 817.00 L423.00 817.00 L424.00 818.00 L424.00 819.00 L425.00 820.00 L426.00 820.00 L427.00 821.00 L427.00 822.00 L428.00 822.00 L429.00 823.00 L429.00 824.00 L430.00 825.00 L431.00 825.00 L434.00 828.00 L434.00 829.00 L435.00 830.00 L436.00 830.00 L437.00 831.00 L437.00 832.00 L441.00 835.00 L441.00 836.00 L449.00 844.00 L449.00 845.00 L465.00 862.00 L471.00 862.00 L471.00 854.00 L468.00 850.00 L468.00 847.00 L466.00 844.00 L466.00 841.00 L464.00 839.00 L464.00 838.00 L463.00 837.00 L463.00 834.00 L461.00 832.00 L461.00 829.00 L458.00 824.00 L458.00 820.00 L456.00 818.00 L456.00 815.00 L453.00 811.00 L453.00 808.00 L451.00 805.00 L451.00 802.00 L448.00 798.00 L448.00 795.00 L446.00 793.00 L446.00 789.00 L443.00 785.00 L443.00 782.00 L441.00 780.00 L441.00 777.00 L438.00 772.00 L438.00 770.00 L437.00 769.00 L435.00 764.00 L433.00 762.00 L433.00 760.00 L430.00 755.00 L430.00 753.00 L428.00 751.00 L428.00 749.00 L427.00 748.00 Z M505.00 582.00 L504.00 583.00 L503.00 583.00 L500.00 585.00 L498.00 585.00 L496.00 587.00 L495.00 587.00 L494.00 588.00 L494.00 589.00 L493.00 590.00 L492.00 590.00 L487.00 596.00 L487.00 598.00 L485.00 600.00 L485.00 602.00 L484.00 603.00 L484.00 617.00 L487.00 621.00 L487.00 623.00 L490.00 626.00 L490.00 627.00 L492.00 629.00 L493.00 629.00 L498.00 634.00 L501.00 634.00 L504.00 636.00 L520.00 636.00 L522.00 634.00 L525.00 634.00 L534.00 625.00 L534.00 624.00 L536.00 622.00 L536.00 621.00 L539.00 616.00 L539.00 603.00 L538.00 602.00 L537.00 597.00 L534.00 593.00 L534.00 592.00 L529.00 587.00 L528.00 587.00 L526.00 585.00 L524.00 585.00 L519.00 582.00 Z" fill="#C8A24B" fill-rule="evenodd"/>
</svg>